<?xml version="1.0" encoding="UTF-8"?>
<svg id="Layer_2" data-name="Layer 2" xmlns="http://www.w3.org/2000/svg" viewBox="0 0 148 203.67">
  <defs>
    <style>
      .cls-1 {
        fill: #fff;
      }
    </style>
  </defs>
  <g id="Layer_1-2" data-name="Layer 1">
    <path class="cls-1" d="m63.7,203.67c-17.66,0-38.54-1.34-48.98-3.21-10.71-1.87-14.72-5.35-14.72-17.4V20.34C0,8.3,3.75,4.55,14.18,2.94,23.28,1.61,44.96,0,62.09,0c50.58,0,84.57,13.38,84.57,55.94v4.82c0,17.4-8.3,32.38-22.48,39.34,14.18,6.96,23.82,21.14,23.82,39.61v4.01c0,47.1-38,59.95-84.3,59.95ZM102.5,58.88c0-14.72-9.37-21.41-36.93-21.41-4.28,0-16.59,0-20.34.27v46.3h29.97c21.14,0,27.3-9.64,27.3-21.14v-4.01Zm1.07,80.83c0-12.85-6.96-23.82-28.37-23.82h-29.97v50.05c4.28,0,18.2.27,21.95.27,27.57,0,36.4-8.56,36.4-23.55v-2.94Z"/>
  </g>
</svg>